HIERARCHY
ROOT Pelvis
{
	OFFSET 0.000000 0.000000 0.000000
	CHANNELS 6 Xposition Yposition Zposition Xrotation Yrotation Zrotation
	JOINT LeftUpLeg_virtual
	{
		OFFSET 0.000000 0.000000 0.000000
		CHANNELS 3 Xrotation Yrotation Zrotation
		JOINT LeftUpLeg
		{
			OFFSET 18.735201 -5.666702 -4.541200
			CHANNELS 3 Xrotation Yrotation Zrotation
			JOINT LeftLeg
			{
				OFFSET -0.021200 -31.938179 0.493100
				CHANNELS 3 Xrotation Yrotation Zrotation
				JOINT LeftFoot
				{
					OFFSET 0.021200 -31.938179 -4.336299
					CHANNELS 3 Xrotation Yrotation Zrotation
					JOINT LeftToeBase
					{
						OFFSET 0.943001 -26.722000 15.023500
						CHANNELS 3 Xrotation Yrotation Zrotation
						End Site
						{
							OFFSET 0 0 0
						}
					}
				}
			}
		}
	}
	JOINT RightUpLeg_virtual
	{
		OFFSET 0.000000 0.000000 0.000000
		CHANNELS 3 Xrotation Yrotation Zrotation
		JOINT RightUpLeg
		{
			OFFSET -18.735201 -5.666702 -4.541200
			CHANNELS 3 Xrotation Yrotation Zrotation
			JOINT RightLeg
			{
				OFFSET 0.018946 -31.938133 0.493100
				CHANNELS 3 Xrotation Yrotation Zrotation
				JOINT RightFoot
				{
					OFFSET -0.018946 -31.938126 -4.336299
					CHANNELS 3 Xrotation Yrotation Zrotation
					JOINT RightToeBase
					{
						OFFSET -0.943001 -26.722004 15.023500
						CHANNELS 3 Xrotation Yrotation Zrotation
						End Site
						{
							OFFSET 0 0 0
						}
					}
				}
			}
		}
	}
	JOINT Hips_virtual
	{
		OFFSET 0.000000 0.000000 0.000000
		CHANNELS 3 Xrotation Yrotation Zrotation
		JOINT Hips
		{
			OFFSET -0.000000 -0.000000 -0.000000
			CHANNELS 3 Xrotation Yrotation Zrotation
			JOINT Spine
			{
				OFFSET 0.000000 10.199997 -0.299500
				CHANNELS 3 Xrotation Yrotation Zrotation
				JOINT Spine1
				{
					OFFSET 0.000000 11.900002 -1.516600
					CHANNELS 3 Xrotation Yrotation Zrotation
					JOINT Spine2
					{
						OFFSET 0.000000 13.600006 -2.842500
						CHANNELS 3 Xrotation Yrotation Zrotation
						JOINT Neck_virtual
						{
							OFFSET 0.000000 0.000000 0.000000
							CHANNELS 3 Xrotation Yrotation Zrotation
							JOINT Neck
							{
								OFFSET 0.000000 9.624100 -2.890100
								CHANNELS 3 Xrotation Yrotation Zrotation
								JOINT Head
								{
									OFFSET 0.000000 14.068802 -1.351900
									CHANNELS 3 Xrotation Yrotation Zrotation
									End Site
									{
										OFFSET 0 0 0
									}
								}
							}
						}
						JOINT LeftShoulder_virtual
						{
							OFFSET 0.000000 0.000000 0.000000
							CHANNELS 3 Xrotation Yrotation Zrotation
							JOINT LeftShoulder
							{
								OFFSET 15.263000 10.923401 -0.547700
								CHANNELS 3 Xrotation Yrotation Zrotation
								JOINT LeftArm
								{
									OFFSET 25.438599 -2.830597 -13.032500
									CHANNELS 3 Xrotation Yrotation Zrotation
									JOINT LeftForeArm
									{
										OFFSET 29.960503 0.000000 0.000000
										CHANNELS 3 Xrotation Yrotation Zrotation
										JOINT LeftHand
										{
											OFFSET 27.849251 0.000000 0.000000
											CHANNELS 3 Xrotation Yrotation Zrotation
											End Site
											{
												OFFSET 0 0 0
											}
										}
									}
								}
							}
						}
						JOINT RightShoulder_virtual
						{
							OFFSET 0.000000 0.000000 0.000000
							CHANNELS 3 Xrotation Yrotation Zrotation
							JOINT RightShoulder
							{
								OFFSET -15.263000 10.923401 -0.547700
								CHANNELS 3 Xrotation Yrotation Zrotation
								JOINT RightArm
								{
									OFFSET -25.438599 -2.830597 -13.032500
									CHANNELS 3 Xrotation Yrotation Zrotation
									JOINT RightForeArm
									{
										OFFSET -29.960503 0.000000 0.000000
										CHANNELS 3 Xrotation Yrotation Zrotation
										JOINT RightHand
										{
											OFFSET -27.849251 0.000000 0.000000
											CHANNELS 3 Xrotation Yrotation Zrotation
											End Site
											{
												OFFSET 0 0 0
											}
										}
									}
								}
							}
						}
					}
				}
			}
		}
	}
}
MOTION
Frames: 13
Frame Time: 0.03333333
1.365820 63.063709 -10.336994 0.000000 0.000000 0.000000 -176.376344 59.614028 173.825323 -85.142017 -9.983681 27.601831 124.562160 -13.031165 6.471717 -35.047476 13.588129 -13.546274 0.000000 0.000000 0.000000 -176.149909 59.324489 173.794136 -44.806830 6.724459 -29.421805 95.837205 3.892416 0.800427 -35.399194 23.159484 14.944447 0.000000 0.000000 0.000000 -176.548219 58.952872 173.997444 -0.726421 -0.451586 0.153874 12.686506 3.850277 -2.710133 2.663184 1.418534 0.938823 0.000000 0.000000 0.000000 -0.645459 8.979684 -2.020425 -0.454051 5.887224 2.390628 0.000000 0.000000 0.000000 2.808893 7.401263 -2.564980 -5.859409 -6.800176 -18.155601 20.535580 2.317274 -30.073306 18.803183 -57.665627 -12.362658 0.000000 0.000000 0.000000 -2.446555 9.897094 -1.347047 8.652864 -21.066810 13.279598 31.227201 -0.981294 53.127827 26.998179 59.485456 -14.656080 0.000000 0.000000 0.000000 
1.354864 63.069386 -10.357246 0.000000 0.000000 0.000000 -176.429483 59.597799 173.849474 -85.185682 -9.992016 27.607382 124.550467 -13.055522 6.453488 -35.022526 13.543381 -13.578665 0.000000 0.000000 0.000000 -176.205712 59.306778 173.821293 -44.858965 6.663179 -29.439061 95.814816 3.886262 0.805821 -35.357512 23.171118 14.954402 0.000000 0.000000 0.000000 -176.597970 58.938857 174.015462 -0.726241 -0.451697 0.154037 12.653727 3.857617 -2.709598 2.659716 1.427784 0.933501 0.000000 0.000000 0.000000 -0.644287 8.989232 -2.031438 -0.493103 5.891634 2.393297 0.000000 0.000000 0.000000 2.797086 7.411365 -2.577619 -5.868322 -6.780147 -18.135209 20.615818 2.259514 -29.976990 18.695925 -57.678536 -12.497772 0.000000 0.000000 0.000000 -2.432825 9.910263 -1.355985 8.628622 -21.105834 13.267958 31.290790 -1.017531 53.163139 26.988769 59.521554 -14.646425 0.000000 0.000000 0.000000 
1.345494 63.075928 -10.372810 0.000000 0.000000 0.000000 -176.475067 59.578074 173.865348 -85.221356 -10.020978 27.602833 124.540536 -13.079650 6.432987 -34.976084 13.485234 -13.623901 0.000000 0.000000 0.000000 -176.254015 59.284847 173.839188 -44.889414 6.599279 -29.450936 95.782004 3.883820 0.809017 -35.338750 23.179232 14.957505 0.000000 0.000000 0.000000 -176.641150 58.924923 174.027373 -0.726079 -0.452279 0.154162 12.624950 3.865851 -2.716229 2.653173 1.437905 0.935185 0.000000 0.000000 0.000000 -0.645453 9.000754 -2.036553 -0.527763 5.891628 2.395518 0.000000 0.000000 0.000000 2.787105 7.423892 -2.586606 -5.868429 -6.750618 -18.115453 20.686917 2.205704 -29.877109 18.590144 -57.687197 -12.625370 0.000000 0.000000 0.000000 -2.417728 9.925023 -1.360484 8.603731 -21.137320 13.248868 31.338899 -1.042841 53.233074 27.006209 59.518480 -14.684038 0.000000 0.000000 0.000000 
1.337869 63.078300 -10.384262 0.000000 0.000000 0.000000 -176.512510 59.550363 173.872711 -85.257686 -10.074940 27.588592 124.534744 -13.102413 6.411392 -34.905661 13.415796 -13.680696 0.000000 0.000000 0.000000 -176.292442 59.255532 173.845649 -44.889410 6.530664 -29.460126 95.738618 3.883092 0.813017 -35.359845 23.174765 14.957546 0.000000 0.000000 0.000000 -176.677664 58.905177 174.033657 -0.725795 -0.452911 0.154402 12.603797 3.875528 -2.730523 2.644515 1.449422 0.943921 0.000000 0.000000 0.000000 -0.649094 9.014103 -2.035230 -0.555899 5.887229 2.397341 0.000000 0.000000 0.000000 2.780015 7.438872 -2.590185 -5.860132 -6.714913 -18.098044 20.742217 2.157331 -29.779966 18.486160 -57.690428 -12.743212 0.000000 0.000000 0.000000 -2.400523 9.941115 -1.360214 8.579731 -21.156736 13.223926 31.384514 -1.058132 53.335455 27.042116 59.469515 -14.760983 0.000000 0.000000 0.000000 
1.333044 63.072685 -10.391750 0.000000 0.000000 0.000000 -176.541006 59.511377 173.872383 -85.302793 -10.154527 27.563440 124.533555 -13.122210 6.390217 -34.818279 13.338906 -13.746109 0.000000 0.000000 0.000000 -176.319380 59.214639 173.839967 -44.855570 6.459814 -29.465699 95.692070 3.888181 0.816030 -35.416334 23.159737 14.970622 0.000000 0.000000 0.000000 -176.705436 58.873430 174.031444 -0.725618 -0.453463 0.154456 12.593954 3.885532 -2.751838 2.636813 1.463259 0.958529 0.000000 0.000000 0.000000 -0.654201 9.029336 -2.028125 -0.574294 5.878491 2.397882 0.000000 0.000000 0.000000 2.776550 7.456558 -2.587461 -5.844793 -6.678815 -18.085356 20.782683 2.117074 -29.687953 18.383994 -57.705352 -12.849421 0.000000 0.000000 0.000000 -2.381518 9.958085 -1.355724 8.558032 -21.161162 13.191225 31.438469 -1.067017 53.462524 27.096392 59.381992 -14.877057 0.000000 0.000000 0.000000 
1.330925 63.056404 -10.398022 0.000000 0.000000 0.000000 -176.559256 59.458279 173.863367 -85.358841 -10.254553 27.528128 124.537257 -13.138683 6.369991 -34.730037 13.259307 -13.819559 0.000000 0.000000 0.000000 -176.333956 59.160414 173.823096 -44.794491 6.395987 -29.466898 95.655720 3.904586 0.814338 -35.490428 23.142330 15.012570 0.000000 0.000000 0.000000 -176.722894 58.824109 174.020161 -0.725563 -0.453422 0.154033 12.598338 3.893645 -2.780349 2.633175 1.479046 0.977128 0.000000 0.000000 0.000000 -0.656145 9.045820 -2.016734 -0.580374 5.865616 2.396136 0.000000 0.000000 0.000000 2.777365 7.476237 -2.579146 -5.823906 -6.646525 -18.077576 20.806780 2.088663 -29.596009 18.285916 -57.758757 -12.940570 0.000000 0.000000 0.000000 -2.361837 9.975164 -1.347858 8.539608 -21.155247 13.148919 31.505129 -1.073956 53.607197 27.171368 59.268284 -15.033318 0.000000 0.000000 0.000000 
1.330913 63.029827 -10.404068 0.000000 0.000000 0.000000 -176.566114 59.392040 173.844857 -85.423065 -10.367978 27.480872 124.544196 -13.153602 6.352678 -34.663299 13.178280 -13.903869 0.000000 0.000000 0.000000 -176.335636 59.093260 173.797073 -44.719079 6.347862 -29.462687 95.640277 3.933930 0.805567 -35.562165 23.129835 15.083798 0.000000 0.000000 0.000000 -176.726896 58.756012 173.997239 -0.725647 -0.452997 0.153133 12.616926 3.898125 -2.814105 2.635823 1.496979 0.997987 0.000000 0.000000 0.000000 -0.651055 9.063240 -2.003208 -0.571996 5.848720 2.390706 0.000000 0.000000 0.000000 2.782425 7.497464 -2.566264 -5.799187 -6.619039 -18.074707 20.817995 2.069597 -29.496951 18.190734 -57.865212 -13.016894 0.000000 0.000000 0.000000 -2.342433 9.992488 -1.337676 8.523577 -21.144333 13.089751 31.573041 -1.069456 53.768373 27.264850 59.130778 -15.226141 0.000000 0.000000 0.000000 
1.332919 62.997826 -10.409203 0.000000 0.000000 0.000000 -176.561210 59.314524 173.817441 -85.487966 -10.485538 27.422870 124.551054 -13.168343 6.337313 -34.631074 13.097996 -14.000051 0.000000 0.000000 0.000000 -176.325882 59.015341 173.764698 -44.637335 6.323069 -29.447951 95.652647 3.972194 0.787880 -35.629842 23.124673 15.169085 0.000000 0.000000 0.000000 -176.717198 58.671789 173.963047 -0.725973 -0.452324 0.151910 12.645674 3.896791 -2.850619 2.645397 1.516377 1.020015 0.000000 0.000000 0.000000 -0.636453 9.081213 -1.989431 -0.548059 5.827677 2.380751 0.000000 0.000000 0.000000 2.791960 7.519462 -2.551345 -5.770696 -6.594459 -18.076608 20.810842 2.053940 -29.388859 18.099241 -58.005832 -13.078767 0.000000 0.000000 0.000000 -2.323955 10.009935 -1.325676 8.510890 -21.136569 13.012622 31.623769 -1.030856 53.950018 27.368201 58.960679 -15.445090 0.000000 0.000000 0.000000 
1.335591 62.966389 -10.415649 0.000000 0.000000 0.000000 -176.544626 59.229782 173.781446 -85.544035 -10.598603 27.356542 124.554223 -13.182815 6.320914 -34.628871 13.021297 -14.103833 0.000000 0.000000 0.000000 -176.305979 58.929506 173.728156 -44.553980 6.320910 -29.423376 95.689632 4.008349 0.765689 -35.711149 23.120271 15.244738 0.000000 0.000000 0.000000 -176.695641 58.578229 173.921478 -0.726446 -0.451553 0.150933 12.679773 3.889055 -2.888052 2.660204 1.536678 1.041788 0.000000 0.000000 0.000000 -0.612930 9.099374 -1.976530 -0.509748 5.802196 2.366205 0.000000 0.000000 0.000000 2.805632 7.541676 -2.536534 -5.738393 -6.568412 -18.083354 20.782855 2.029109 -29.275833 18.013345 -58.142395 -13.127210 0.000000 0.000000 0.000000 -2.305784 10.027940 -1.312476 8.502589 -21.139152 12.919500 31.645496 -0.940153 54.152082 27.471695 58.747256 -15.676309 0.000000 0.000000 0.000000 
1.338992 62.942909 -10.422226 0.000000 0.000000 0.000000 -176.517005 59.142622 173.738675 -85.581560 -10.702380 27.282207 124.549715 -13.194416 6.302222 -34.639851 12.950573 -14.204752 0.000000 0.000000 0.000000 -176.277388 58.839710 173.688063 -44.469743 6.335916 -29.391223 95.736514 4.035385 0.742378 -35.810880 23.113058 15.300599 0.000000 0.000000 0.000000 -176.663922 58.482948 173.874445 -0.727212 -0.451173 0.150703 12.715056 3.875112 -2.924798 2.677956 1.557774 1.062842 0.000000 0.000000 0.000000 -0.584489 9.117964 -1.964666 -0.459513 5.772057 2.347950 0.000000 0.000000 0.000000 2.823049 7.564189 -2.523098 -5.701499 -6.535603 -18.095541 20.740998 1.981194 -29.169986 17.938758 -58.239896 -13.160323 0.000000 0.000000 0.000000 -2.287386 10.046819 -1.298176 8.500859 -21.156700 12.817168 31.635397 -0.791702 54.367831 27.565281 58.484574 -15.905528 0.000000 0.000000 0.000000 
1.342271 62.932983 -10.427086 0.000000 0.000000 0.000000 -176.478592 59.056534 173.689279 -85.593875 -10.793823 27.202092 124.536110 -13.199536 6.280221 -34.636350 12.890380 -14.291611 0.000000 0.000000 0.000000 -176.240928 58.751368 173.643640 -44.385072 6.363595 -29.352291 95.774313 4.054336 0.716963 -35.907066 23.109397 15.344046 0.000000 0.000000 0.000000 -176.624553 58.393849 173.824763 -0.728008 -0.451083 0.151191 12.749698 3.855501 -2.960487 2.695720 1.578651 1.082347 0.000000 0.000000 0.000000 -0.556703 9.137202 -1.952896 -0.401655 5.736937 2.327457 0.000000 0.000000 0.000000 2.842887 7.586611 -2.512033 -5.660150 -6.493238 -18.113030 20.693402 1.906190 -29.084305 17.886090 -58.280768 -13.171775 0.000000 0.000000 0.000000 -2.269614 10.066556 -1.283733 8.507871 -21.193341 12.715609 31.601366 -0.596658 54.578867 27.648049 58.184087 -16.125563 0.000000 0.000000 0.000000 
1.345595 62.937202 -10.431656 0.000000 0.000000 0.000000 -176.430179 58.977140 173.633995 -85.581205 -10.874805 27.117630 124.514335 -13.194897 6.256319 -34.605717 12.844784 -14.355056 0.000000 0.000000 0.000000 -176.197051 58.669658 173.594667 -44.300586 6.394758 -29.309585 95.791634 4.068628 0.691121 -35.969791 23.115715 15.383106 0.000000 0.000000 0.000000 -176.578476 58.316620 173.773372 -0.728512 -0.451482 0.151952 12.787640 3.831975 -2.995633 2.711829 1.599144 1.099468 0.000000 0.000000 0.000000 -0.533102 9.157322 -1.940749 -0.340833 5.697213 2.306978 0.000000 0.000000 0.000000 2.863377 7.609254 -2.503056 -5.615232 -6.439559 -18.134449 20.650056 1.811890 -29.027986 17.864824 -58.281164 -13.152869 0.000000 0.000000 0.000000 -2.254003 10.086578 -1.270101 8.525494 -21.249721 12.624581 31.554422 -0.372780 54.767281 27.727267 57.868320 -16.337514 0.000000 0.000000 0.000000 
1.348390 62.954269 -10.433846 0.000000 0.000000 0.000000 -176.372614 58.908285 173.572920 -85.549212 -10.948778 27.032386 124.485634 -13.181273 6.234627 -34.558510 12.815005 -14.395373 0.000000 0.000000 0.000000 -176.145442 58.601541 173.540285 -44.216493 6.419661 -29.265137 95.784421 4.081507 0.665888 -35.974883 23.136414 15.416886 0.000000 0.000000 0.000000 -176.524777 58.252764 173.717174 -0.728749 -0.452241 0.152505 12.833003 3.806331 -3.028643 2.725239 1.619228 1.113845 0.000000 0.000000 0.000000 -0.514196 9.178617 -1.928519 -0.281417 5.653193 2.288382 0.000000 0.000000 0.000000 2.881163 7.632303 -2.495958 -5.568817 -6.375132 -18.158802 20.611008 1.714888 -29.001987 17.885328 -58.268214 -13.093561 0.000000 0.000000 0.000000 -2.243379 10.106729 -1.258082 8.555169 -21.325283 12.552954 31.495201 -0.135539 54.926103 27.810372 57.560395 -16.544216 0.000000 0.000000 0.000000 
